<?xml version="1.0" encoding="utf-8"?>
<?xml-stylesheet type="text/xsl" href="rss1.xsl"?>
<rss version="2.0" xmlns:atom="http://www.w3.org/2005/Atom" xmlns:content="http://purl.org/rss/1.0/modules/content/" xmlns:dc="http://purl.org/dc/elements/1.1/" xmlns:media="http://search.yahoo.com/mrss/">
<channel>
 <title>Getty</title>
 <link>http://www.gettyimg.com/</link>
 <atom:link href="http://www.gettyimg.com/" rel="self" type="application/rss+xml" />

 
                <item>
                <title><![CDATA[【Singles (lossless)】FLAC - The Corrs - Summer Sunshine (Remixes) [2004] | CDRIP 16bit 44100kHz]]></title>
                <link><![CDATA[https://sharemania.us/threads/the-corrs-summer-sunshine-remixes-2004-cdrip-16bit-44100khz.231666/]]></link>
                <description><![CDATA[<article>
<blockquote class="messageText SelectQuoteContainer ugc baseHtml">
<img src="https://i.imgur.com/WVXDU7q.jpg" class="bbCodeImage LbImage" alt="[​IMG]" data-url="https://i.imgur.com/WVXDU7q.jpg" style=""> <br>
<br>
<ol>
<li>Summer Sunshine (Fernando Garibay Extended Mix)</li>
<li>Summer Sunshine (Ford Club)</li>
<li>Summer Sunshine (Ford Dub)</li>
<li>Summer Sunshine (Global Club)</li>
<li>Summer Sunshine (Fernando Garibay Acapella)</li>
<li>Summer Sunshine (Ford Break)</li>
<li>Summer Sunshine (Ford Synthapella)</li>
<li>Summer Sunshine (Fernando Garibay Radio Mix)</li>
<li>Summer Sunshine (Ford Radio Edit)</li>
<li>Summer Sunshine (EPK Acoustic)</li>
</ol>Password is the main domain (xxxxxxxxxxx.xx) in lowercase.<br>
<br>
<div class="bbCodeBlock bbCodeVfcHH HiddenContent">
<div class="attribution type">Hidden Content:</div>
<blockquote>You must reply before you can see the hidden data contained here.</blockquote>
</div>
<div class="messageTextEndMarker">&nbsp;</div>
</blockquote>
</article>]]></description>
                <author><![CDATA[KingOfHell1661]]></author>
                </item>

                
                <item>
                <title><![CDATA[【Apple Music】WEB-RiP - The Beatles - Now And Then (Apple Music 1080p)]]></title>
                <link><![CDATA[https://sharemania.us/threads/the-beatles-now-and-then-apple-music-1080p.231667/]]></link>
                <description><![CDATA[<article>
<blockquote class="messageText SelectQuoteContainer ugc baseHtml">
<img src="https://images2.imgbox.com/31/18/4041zzlW_o.jpg" class="bbCodeImage LbImage" alt="[​IMG]" data-url="https://images2.imgbox.com/31/18/4041zzlW_o.jpg" style=""><br>
<br>
<div class="ToggleTriggerAnchor bbCodeSpoilerContainer">
<button type="button" class="button bbCodeSpoilerButton ToggleTrigger Tooltip JsOnly" data-target="> .SpoilerTarget"><span>Spoiler: <span class="SpoilerTitle">Media Info</span></span></button>
<div class="SpoilerTarget bbCodeSpoilerText">Format : MPEG-4<br>
Codec ID : M4V (isom/iso4/M4V /mp42)<br>
File size : 217 MiB<br>
Duration : 4 min 35 s<br>
Overall bit rate mode : Variable<br>
Overall bit rate : 6 623 kb/s<br>
Frame rate : 24.000 FPS<br>
Movie name : Now And Then<br>
Performer : The Beatles<br>
Genre : Rock<br>
ContentType : Music Video<br>
Recorded date : 2023-11-03 07:00:00 UTC<br>
Encoded date : 2023-11-03 13:25:00 UTC<br>
Tagged date : 2023-11-03 13:25:00 UTC<br>
Copyright : ℗ 2023 Calderstone Productions Limited (a division of Universal Music Group)<br>
Cover : Yes<br>
Rating : None<br>
GenreID : 1621<br>
AlbumTitleID : 136975<br>
AppleStoreCountry : United States<br>
AppleStoreCatalogID : 1714455337<br>
<br>
Video<br>
ID : 2<br>
Format : AVC<br>
Format/Info : Advanced Video Codec<br>
Format profile : High@L4<br>
Format settings : CABAC / 4 Ref Frames<br>
Format settings, CABAC : Yes<br>
Format settings, Reference : 4 frames<br>
Codec ID : avc1<br>
Codec ID/Info : Advanced Video Coding<br>
Duration : 4 min 35 s<br>
Duration_FirstFrame : 42 ms<br>
Bit rate : 6 340 kb/s<br>
Maximum bit rate : 14.1 Mb/s<br>
Width : 1 920 pixels<br>
Height : 1 080 pixels<br>
Display aspect ratio : 16:9<br>
Frame rate mode : Constant<br>
Frame rate : 24.000 FPS<br>
Color space : YUV<br>
Chroma subsampling : 4:2:0<br>
Bit depth : 8 bits<br>
Scan type : Progressive<br>
Bits/(Pixel*Frame) : 0.127<br>
Stream size : 208 MiB (96%)<br>
Title : Core Media Video<br>
Language : English<br>
Encoded date : 2023-11-01 02:03:49 UTC<br>
Tagged date : 2023-11-03 13:25:00 UTC<br>
Color range : Limited<br>
Color primaries : BT.709<br>
Transfer characteristics : BT.709<br>
Matrix coefficients : BT.709<br>
Codec configuration box : avcC<br>
<br>
Audio<br>
ID : 1<br>
Format : AAC LC<br>
Format/Info : Advanced Audio Codec Low Complexity<br>
Codec ID : mp4a-40-2<br>
Duration : 4 min 35 s<br>
Duration_LastFrame : -7 ms<br>
Bit rate mode : Variable<br>
Bit rate : 265 kb/s<br>
Maximum bit rate : 485 kb/s<br>
Channel(s) : 2 channels<br>
Channel layout : L R<br>
Sampling rate : 48.0 kHz<br>
Frame rate : 46.875 FPS (1024 SPF)<br>
Compression mode : Lossy<br>
Stream size : 8.70 MiB (4%)<br>
Title : Core Media Audio<br>
Encoded date : 2023-11-01 02:00:58 UTC<br>
Tagged date : 2023-11-03 13:25:00 UTC<br>
<br>
Text<br>
ID : 3<br>
Format : EIA-608<br>
Codec ID : c608<br>
Duration : 4 min 22 s<br>
Bit rate mode : Variable<br>
Bit rate : 58 b/s<br>
Maximum bit rate : 624 b/s<br>
Frame rate : 0.286 FPS<br>
Stream size : 1.86 KiB (0%)<br>
Title : Core Media Closed Caption<br>
Language : English<br>
Forced : No<br>
Encoded date : 2023-11-01 02:03:49 UTC<br>
Tagged date : 2023-11-03 13:25:00 UTC</div>
</div><br>
<span data-s9e-mediaembed="youtube" style="display:inline-block;width:100%;max-width:640px"><span style="display:block;overflow:hidden;position:relative;padding-bottom:56.25%"><iframe allowfullscreen="" loading="lazy" scrolling="no" style="background:url(https://i.ytimg.com/vi/Opxhh9Oh3rg/hqdefault.jpg) 50% 50% / cover;border:0;height:100%;left:0;position:absolute;width:100%" src="https://www.youtube.com/embed/Opxhh9Oh3rg"></iframe></span></span><br>
<br>
<div class="bbCodeBlock bbCodeVfcHH HiddenContent">
<div class="attribution type">Hidden Content:</div>
<blockquote>You must reply before you can see the hidden data contained here.</blockquote>
</div>
<div class="messageTextEndMarker">&nbsp;</div>
</blockquote>
</article>]]></description>
                <author><![CDATA[Eric Lyn]]></author>
                </item>

                </channel></rss>